{
	"patcher" : 	{
		"fileversion" : 1,
		"appversion" : 		{
			"major" : 6,
			"minor" : 1,
			"revision" : 3,
			"architecture" : "x86"
		}
,
		"rect" : [ 25.0, 69.0, 740.0, 781.0 ],
		"bglocked" : 0,
		"openinpresentation" : 0,
		"default_fontsize" : 11.0,
		"default_fontface" : 0,
		"default_fontname" : "Arial",
		"gridonopen" : 0,
		"gridsize" : [ 15.0, 15.0 ],
		"gridsnaponopen" : 0,
		"statusbarvisible" : 2,
		"toolbarvisible" : 1,
		"boxanimatetime" : 200,
		"imprint" : 0,
		"enablehscroll" : 1,
		"enablevscroll" : 1,
		"devicewidth" : 0.0,
		"description" : "",
		"digest" : "",
		"tags" : "",
		"boxes" : [ 			{
				"box" : 				{
					"fontname" : "Arial",
					"fontsize" : 12.0,
					"hidden" : 1,
					"id" : "obj-39",
					"linecount" : 3,
					"maxclass" : "message",
					"numinlets" : 2,
					"numoutlets" : 1,
					"outlettype" : [ "" ],
					"patching_rect" : [ 423.0, 972.636353, 238.0, 45.0 ],
					"prototypename" : "hidden link",
					"text" : ";\rmax launchbrowser http://mage.numediart.org/publications.php"
				}

			}
, 			{
				"box" : 				{
					"fontname" : "AdobeKaitiStd",
					"fontsize" : 12.0,
					"frgb" : 0.0,
					"id" : "obj-37",
					"maxclass" : "comment",
					"numinlets" : 1,
					"numoutlets" : 0,
					"patching_rect" : [ 293.0, 984.636353, 130.0, 21.0 ],
					"prototypename" : "magefont",
					"text" : "mage.numediart.org",
					"textcolor" : [ 0.901961, 0.227451, 0.47451, 1.0 ],
					"underline" : 1
				}

			}
, 			{
				"box" : 				{
					"fontname" : "AdobeKaitiStd",
					"fontsize" : 12.0,
					"frgb" : 0.0,
					"id" : "obj-19",
					"maxclass" : "comment",
					"numinlets" : 1,
					"numoutlets" : 0,
					"patching_rect" : [ 34.212769, 984.636353, 566.0, 21.0 ],
					"text" : "some more theorical informations/papers @                                ."
				}

			}
, 			{
				"box" : 				{
					"comment" : "",
					"hidden" : 1,
					"id" : "obj-32",
					"maxclass" : "inlet",
					"numinlets" : 0,
					"numoutlets" : 1,
					"outlettype" : [ "bang" ],
					"patching_rect" : [ 20.0, 73.0, 25.0, 25.0 ]
				}

			}
, 			{
				"box" : 				{
					"fontname" : "Arial",
					"fontsize" : 11.0,
					"hidden" : 1,
					"id" : "obj-21",
					"maxclass" : "message",
					"numinlets" : 2,
					"numoutlets" : 1,
					"outlettype" : [ "" ],
					"patching_rect" : [ 20.0, 105.0, 33.0, 17.0 ],
					"text" : "front"
				}

			}
, 			{
				"box" : 				{
					"fontname" : "Arial",
					"fontsize" : 11.0,
					"hidden" : 1,
					"id" : "obj-14",
					"maxclass" : "newobj",
					"numinlets" : 1,
					"numoutlets" : 2,
					"outlettype" : [ "", "" ],
					"patching_rect" : [ 20.0, 131.0, 64.0, 19.0 ],
					"save" : [ "#N", "thispatcher", ";", "#Q", "end", ";" ],
					"text" : "thispatcher"
				}

			}
, 			{
				"box" : 				{
					"fontname" : "AdobeKaitiStd",
					"fontsize" : 12.0,
					"frgb" : 0.0,
					"id" : "obj-30",
					"linecount" : 2,
					"maxclass" : "comment",
					"numinlets" : 1,
					"numoutlets" : 0,
					"patching_rect" : [ 131.212769, 905.636353, 566.0, 35.0 ],
					"text" : "Simply means a system suited for real-time manipulation. Mage allows control over many synthesis parameters during said synthesis, at real time ; hence the \"performative\" appellation."
				}

			}
, 			{
				"box" : 				{
					"fontname" : "Arial",
					"fontsize" : 12.0,
					"hidden" : 1,
					"id" : "obj-27",
					"linecount" : 3,
					"maxclass" : "message",
					"numinlets" : 2,
					"numoutlets" : 1,
					"outlettype" : [ "" ],
					"patching_rect" : [ 519.5, 879.636353, 140.0, 45.0 ],
					"prototypename" : "hidden link",
					"text" : ";\rmax launchbrowser http://hts.sp.nitech.ac.jp/"
				}

			}
, 			{
				"box" : 				{
					"fontname" : "AdobeKaitiStd",
					"fontsize" : 12.0,
					"frgb" : 0.0,
					"id" : "obj-20",
					"maxclass" : "comment",
					"numinlets" : 1,
					"numoutlets" : 0,
					"patching_rect" : [ 513.5, 845.636353, 19.0, 21.0 ],
					"text" : "/"
				}

			}
, 			{
				"box" : 				{
					"fontname" : "AdobeKaitiStd",
					"fontsize" : 12.0,
					"frgb" : 0.0,
					"id" : "obj-17",
					"maxclass" : "comment",
					"numinlets" : 1,
					"numoutlets" : 0,
					"patching_rect" : [ 519.5, 845.636353, 33.0, 21.0 ],
					"prototypename" : "magefont",
					"text" : "HTK",
					"textcolor" : [ 0.901961, 0.227451, 0.47451, 1.0 ],
					"underline" : 1
				}

			}
, 			{
				"box" : 				{
					"fontname" : "AdobeKaitiStd",
					"fontsize" : 12.0,
					"frgb" : 0.0,
					"id" : "obj-16",
					"maxclass" : "comment",
					"numinlets" : 1,
					"numoutlets" : 0,
					"patching_rect" : [ 490.5, 845.636353, 33.0, 21.0 ],
					"prototypename" : "magefont",
					"text" : "HTS",
					"textcolor" : [ 0.901961, 0.227451, 0.47451, 1.0 ],
					"underline" : 1
				}

			}
, 			{
				"box" : 				{
					"fontname" : "AdobeKaitiStd",
					"fontsize" : 12.0,
					"frgb" : 0.0,
					"id" : "obj-18",
					"maxclass" : "comment",
					"numinlets" : 1,
					"numoutlets" : 0,
					"patching_rect" : [ 294.0, 831.636353, 66.0, 21.0 ],
					"prototypename" : "magelink",
					"text" : "wikipedia",
					"textcolor" : [ 0.901961, 0.227451, 0.47451, 1.0 ],
					"underline" : 1
				}

			}
, 			{
				"box" : 				{
					"fontname" : "Arial",
					"fontsize" : 12.0,
					"hidden" : 1,
					"id" : "obj-15",
					"linecount" : 4,
					"maxclass" : "message",
					"numinlets" : 2,
					"numoutlets" : 1,
					"outlettype" : [ "" ],
					"patching_rect" : [ 420.0, 767.636353, 268.0, 59.0 ],
					"text" : ";\rmax launchbrowser http://en.wikipedia.org/wiki/Hidden_Markov_model"
				}

			}
, 			{
				"box" : 				{
					"handoff" : "",
					"id" : "obj-6",
					"maxclass" : "ubutton",
					"numinlets" : 1,
					"numoutlets" : 4,
					"outlettype" : [ "bang", "bang", "", "int" ],
					"patching_rect" : [ 294.0, 831.636353, 62.0, 21.0 ]
				}

			}
, 			{
				"box" : 				{
					"fontname" : "AdobeKaitiStd",
					"fontsize" : 12.0,
					"frgb" : 0.0,
					"id" : "obj-5",
					"linecount" : 3,
					"maxclass" : "comment",
					"numinlets" : 1,
					"numoutlets" : 0,
					"patching_rect" : [ 131.212769, 831.636353, 566.0, 49.0 ],
					"text" : "Hidden Markov Models. See                for more info. Statistical model which allows for multiple transitions between several states. They are at the core of the               speech synthesis systems, which in turn are at the core of mage."
				}

			}
, 			{
				"box" : 				{
					"fontname" : "AdobeKaitiStd",
					"fontsize" : 12.0,
					"frgb" : 0.0,
					"id" : "obj-33",
					"maxclass" : "comment",
					"numinlets" : 1,
					"numoutlets" : 0,
					"patching_rect" : [ 131.212769, 786.636353, 537.0, 21.0 ],
					"text" : "Parameters generation/interfacing/everything engine at the core of mage."
				}

			}
, 			{
				"box" : 				{
					"fontname" : "AdobeKaitiStd",
					"fontsize" : 14.315886,
					"frgb" : 0.0,
					"id" : "obj-34",
					"maxclass" : "comment",
					"numinlets" : 1,
					"numoutlets" : 0,
					"patching_rect" : [ 21.5, 786.636353, 66.0, 23.0 ],
					"text" : "mage"
				}

			}
, 			{
				"box" : 				{
					"fontname" : "AdobeKaitiStd",
					"fontsize" : 14.315886,
					"frgb" : 0.0,
					"id" : "obj-31",
					"linecount" : 2,
					"maxclass" : "comment",
					"numinlets" : 1,
					"numoutlets" : 0,
					"patching_rect" : [ 21.5, 905.636353, 102.0, 40.0 ],
					"text" : "performative system"
				}

			}
, 			{
				"box" : 				{
					"fontname" : "AdobeKaitiStd",
					"fontsize" : 14.315886,
					"frgb" : 0.0,
					"id" : "obj-29",
					"maxclass" : "comment",
					"numinlets" : 1,
					"numoutlets" : 0,
					"patching_rect" : [ 21.5, 831.636353, 66.0, 23.0 ],
					"text" : "hmm"
				}

			}
, 			{
				"box" : 				{
					"fontname" : "AdobeKaitiStd",
					"fontsize" : 12.0,
					"frgb" : 0.0,
					"id" : "obj-25",
					"maxclass" : "comment",
					"numinlets" : 1,
					"numoutlets" : 0,
					"patching_rect" : [ 131.212769, 743.636353, 537.0, 21.0 ],
					"text" : "Synthesis engine at the core of mage."
				}

			}
, 			{
				"box" : 				{
					"fontname" : "AdobeKaitiStd",
					"fontsize" : 14.315886,
					"frgb" : 0.0,
					"id" : "obj-26",
					"maxclass" : "comment",
					"numinlets" : 1,
					"numoutlets" : 0,
					"patching_rect" : [ 21.5, 743.636353, 66.0, 23.0 ],
					"text" : "vocoder"
				}

			}
, 			{
				"box" : 				{
					"fontname" : "AdobeKaitiStd",
					"fontsize" : 12.0,
					"frgb" : 0.0,
					"id" : "obj-24",
					"linecount" : 7,
					"maxclass" : "comment",
					"numinlets" : 1,
					"numoutlets" : 0,
					"patching_rect" : [ 131.212769, 617.636353, 574.0, 105.0 ],
					"text" : "Shortest temporal unit that is used by mage (except the vocoder which of course synthesizes sound at sample rate). Frame length is an absolute value (= not changing, as opposed to state duration for example, which depends on many parameters) expressed in samples. User has direct and realtime control on that value with the message \"speed\" ans its derivatives (see relevant tab). Default frame length is 240 samples, default mage framerate is 48000 Hz (doesn't work correctly at other rates at the moment) ; which gives a defaut frame length of 240 samples at 48000 samples per second <-> 200 frames per second <-> 5 miliseconds per frame."
				}

			}
, 			{
				"box" : 				{
					"fontname" : "AdobeKaitiStd",
					"fontsize" : 12.0,
					"frgb" : 0.0,
					"id" : "obj-22",
					"linecount" : 3,
					"maxclass" : "comment",
					"numinlets" : 1,
					"numoutlets" : 0,
					"patching_rect" : [ 131.212769, 473.636353, 525.0, 49.0 ],
					"text" : "Similarly to the label queue, FIFO list containing all the models to be synthesized by the vocoder. Unlike the label queue, user has very few control or information on the model queue."
				}

			}
, 			{
				"box" : 				{
					"fontname" : "AdobeKaitiStd",
					"fontsize" : 14.315886,
					"frgb" : 0.0,
					"id" : "obj-23",
					"maxclass" : "comment",
					"numinlets" : 1,
					"numoutlets" : 0,
					"patching_rect" : [ 20.0, 473.636353, 101.0, 23.0 ],
					"text" : "model queue"
				}

			}
, 			{
				"box" : 				{
					"fontname" : "AdobeKaitiStd",
					"fontsize" : 12.0,
					"frgb" : 0.0,
					"id" : "obj-13",
					"linecount" : 4,
					"maxclass" : "comment",
					"numinlets" : 1,
					"numoutlets" : 0,
					"patching_rect" : [ 131.212769, 536.636353, 537.0, 63.0 ],
					"text" : "A temporal subdivision of a phoneme/label/model ; each of those has five states, \"beginning - beginning/middle - middle - middle/end - end\", each state lasts a different number of frames (usually between 1 and 10, first is shorter, middle is longer, or somehting along those lines) "
				}

			}
, 			{
				"box" : 				{
					"fontname" : "AdobeKaitiStd",
					"fontsize" : 14.315886,
					"frgb" : 0.0,
					"id" : "obj-12",
					"maxclass" : "comment",
					"numinlets" : 1,
					"numoutlets" : 0,
					"patching_rect" : [ 21.5, 617.636353, 57.0, 23.0 ],
					"text" : "frame"
				}

			}
, 			{
				"box" : 				{
					"fontname" : "AdobeKaitiStd",
					"fontsize" : 12.0,
					"frgb" : 0.0,
					"id" : "obj-11",
					"maxclass" : "comment",
					"numinlets" : 1,
					"numoutlets" : 0,
					"patching_rect" : [ 131.212769, 426.636353, 525.0, 21.0 ],
					"text" : "Label computed into a set of synthesis parameter for the vocoder ?"
				}

			}
, 			{
				"box" : 				{
					"fontname" : "AdobeKaitiStd",
					"fontsize" : 14.315886,
					"frgb" : 0.0,
					"id" : "obj-10",
					"maxclass" : "comment",
					"numinlets" : 1,
					"numoutlets" : 0,
					"patching_rect" : [ 21.5, 536.636353, 57.0, 23.0 ],
					"text" : "state"
				}

			}
, 			{
				"box" : 				{
					"fontname" : "AdobeKaitiStd",
					"fontsize" : 14.315886,
					"frgb" : 0.0,
					"id" : "obj-9",
					"maxclass" : "comment",
					"numinlets" : 1,
					"numoutlets" : 0,
					"patching_rect" : [ 20.0, 426.636353, 57.0, 23.0 ],
					"text" : "model"
				}

			}
, 			{
				"box" : 				{
					"fontname" : "AdobeKaitiStd",
					"fontsize" : 14.315886,
					"frgb" : 0.0,
					"id" : "obj-7",
					"maxclass" : "comment",
					"numinlets" : 1,
					"numoutlets" : 0,
					"patching_rect" : [ 20.0, 327.636353, 90.0, 23.0 ],
					"text" : "label queue"
				}

			}
, 			{
				"box" : 				{
					"fontname" : "AdobeKaitiStd",
					"fontsize" : 12.0,
					"frgb" : 0.0,
					"id" : "obj-8",
					"linecount" : 5,
					"maxclass" : "comment",
					"numinlets" : 1,
					"numoutlets" : 0,
					"patching_rect" : [ 131.212769, 327.636353, 525.0, 77.0 ],
					"text" : "Internal mage's buffer where are waiting the next labels to be processed/synthesized. It is a FIFO (first in first out) queue. When you send a label in the queue, it waits until the queue reaches his turn, then it is computed (all the information are translated to parameters to give to the vocoder) then the computed parameters are sent to the models queue."
				}

			}
, 			{
				"box" : 				{
					"fontname" : "AdobeKaitiStd",
					"fontsize" : 14.315886,
					"frgb" : 0.0,
					"id" : "obj-3",
					"linecount" : 2,
					"maxclass" : "comment",
					"numinlets" : 1,
					"numoutlets" : 0,
					"patching_rect" : [ 20.0, 268.636353, 90.0, 40.0 ],
					"text" : ".lab or labels list"
				}

			}
, 			{
				"box" : 				{
					"fontname" : "AdobeKaitiStd",
					"fontsize" : 12.0,
					"frgb" : 0.0,
					"id" : "obj-4",
					"linecount" : 2,
					"maxclass" : "comment",
					"numinlets" : 1,
					"numoutlets" : 0,
					"patching_rect" : [ 131.212769, 268.636353, 522.0, 35.0 ],
					"text" : "File containing a list of several successive labels, it is the output of label file generation from a text file."
				}

			}
, 			{
				"box" : 				{
					"fontname" : "AdobeKaitiStd",
					"fontsize" : 14.315886,
					"frgb" : 0.0,
					"id" : "obj-1",
					"maxclass" : "comment",
					"numinlets" : 1,
					"numoutlets" : 0,
					"patching_rect" : [ 20.0, 200.636353, 57.0, 23.0 ],
					"text" : "label"
				}

			}
, 			{
				"box" : 				{
					"fontname" : "AdobeKaitiStd",
					"fontsize" : 12.0,
					"frgb" : 0.0,
					"id" : "obj-2",
					"linecount" : 3,
					"maxclass" : "comment",
					"numinlets" : 1,
					"numoutlets" : 0,
					"patching_rect" : [ 131.212769, 200.636353, 525.0, 49.0 ],
					"text" : "One label is a string containing information needed to synthesize a phoneme. It gives info about what is the current phoneme, what are the few previous and next phonemes, current phoneme's duration, intonation, accentuation, etc."
				}

			}
, 			{
				"box" : 				{
					"fontname" : "AdobeKaitiStd",
					"fontsize" : 14.315886,
					"frgb" : 0.0,
					"id" : "obj-114",
					"maxclass" : "comment",
					"numinlets" : 1,
					"numoutlets" : 0,
					"patching_rect" : [ 20.0, 21.636353, 57.0, 23.0 ],
					"text" : "engine"
				}

			}
, 			{
				"box" : 				{
					"fontname" : "AdobeKaitiStd",
					"fontsize" : 12.0,
					"frgb" : 0.0,
					"id" : "obj-111",
					"linecount" : 11,
					"maxclass" : "comment",
					"numinlets" : 1,
					"numoutlets" : 0,
					"patching_rect" : [ 131.212769, 21.636353, 534.0, 162.0 ],
					"text" : "a set of all the rules needed to make mage replicate a trained model's specific voice. You will need one different engine for each voice you want to imitate. \n\nSix different engines are provided in the \"data\" archives, in the folder data/configFiles/cmu-artic are the .conf files ; you will probably need to modify the filepath in these so that they point to your current installation's path of folder data/voices/[engine name].\n\nThose files were obtained after a training procedure, which consists - to summarize - in recording one person's voice reading phonetically balanced texts, then analysing and processing the result until the obtention of a set of rules for speech synthesis."
				}

			}
, 			{
				"box" : 				{
					"handoff" : "",
					"id" : "obj-28",
					"maxclass" : "ubutton",
					"numinlets" : 1,
					"numoutlets" : 4,
					"outlettype" : [ "bang", "bang", "", "int" ],
					"patching_rect" : [ 490.5, 845.636353, 62.0, 21.0 ]
				}

			}
, 			{
				"box" : 				{
					"handoff" : "",
					"id" : "obj-38",
					"maxclass" : "ubutton",
					"numinlets" : 1,
					"numoutlets" : 4,
					"outlettype" : [ "bang", "bang", "", "int" ],
					"patching_rect" : [ 293.212769, 984.636353, 129.787231, 21.0 ]
				}

			}
 ],
		"lines" : [ 			{
				"patchline" : 				{
					"destination" : [ "obj-14", 0 ],
					"disabled" : 0,
					"hidden" : 1,
					"source" : [ "obj-21", 0 ]
				}

			}
, 			{
				"patchline" : 				{
					"destination" : [ "obj-27", 0 ],
					"disabled" : 0,
					"hidden" : 1,
					"source" : [ "obj-28", 0 ]
				}

			}
, 			{
				"patchline" : 				{
					"destination" : [ "obj-21", 0 ],
					"disabled" : 0,
					"hidden" : 1,
					"source" : [ "obj-32", 0 ]
				}

			}
, 			{
				"patchline" : 				{
					"destination" : [ "obj-39", 0 ],
					"disabled" : 0,
					"hidden" : 1,
					"source" : [ "obj-38", 0 ]
				}

			}
, 			{
				"patchline" : 				{
					"destination" : [ "obj-15", 0 ],
					"disabled" : 0,
					"hidden" : 1,
					"source" : [ "obj-6", 0 ]
				}

			}
 ]
	}

}
